<svg width="495" height="220" viewBox="0 0 495 220" fill="none" xmlns="http://www.w3.org/2000/svg">
  <defs>
    <linearGradient id="bgGrad" x1="0%" y1="0%" x2="100%" y2="100%">
      <stop offset="0%" stop-color="#020A0F"/>
      <stop offset="100%" stop-color="#0B1520"/>
    </linearGradient>
    <filter id="glowCyan" x="-20%" y="-20%" width="140%" height="140%">
      <feDropShadow dx="0" dy="0" stdDeviation="4" flood-color="#38BDF8" flood-opacity="0.4"/>
    </filter>
    <filter id="softGlow" x="-20%" y="-20%" width="140%" height="140%">
      <feDropShadow dx="0" dy="0" stdDeviation="2" flood-color="#38BDF8" flood-opacity="0.3"/>
    </filter>
  </defs>

  <rect x="1" y="1" width="493" height="218" rx="14" fill="url(#bgGrad)" stroke="#1A2E3B" stroke-width="1.5"/>
  <!-- Top accent glow line -->
  <rect x="20" y="2" width="140" height="2.5" rx="1" fill="#38BDF8" filter="url(#glowCyan)"/>

  <!-- Corner brackets -->
  <path d="M 10,22 L 10,10 L 22,10" fill="none" stroke="#38BDF8" stroke-width="2.5"/>
  <path d="M 485,22 L 485,10 L 473,10" fill="none" stroke="#818CF8" stroke-width="2.5"/>

  <!-- Header Section -->
  <g transform="translate(24, 28)">
    <circle cx="6" cy="6" r="4.5" fill="#34D399" filter="url(#glowCyan)">
      <animate attributeName="opacity" values="1;0.5;1" dur="2s" repeatCount="indefinite"/>
    </circle>
    <text x="18" y="10" font-family="'Space Grotesk', 'Outfit', 'Manrope', sans-serif" font-size="13" font-weight="700" fill="#38BDF8" letter-spacing="1.2">GITHUB ANALYTICS &amp; VELOCITY</text>
    <text x="445" y="10" text-anchor="end" font-family="'Space Grotesk', 'Outfit', 'Manrope', sans-serif" font-size="10" font-weight="600" fill="#34D399">● LIVE</text>
  </g>

  <!-- Stat Metric Boxes (2x2 grid) with 3D depth -->
  <g transform="translate(24, 50)">
    <rect x="0" y="0" width="105" height="55" rx="8" fill="#0B1520" stroke="#1A2E3B" stroke-width="1"/>
    <rect x="2" y="0" width="103" height="2" rx="1" fill="#38BDF8" opacity="0.6"/>
    <text x="12" y="20" font-family="'Space Grotesk', 'Outfit', 'Manrope', sans-serif" font-size="9" font-weight="600" fill="#8BA4B8" letter-spacing="0.5">PUBLIC REPOS</text>
    <text x="12" y="42" font-family="'Space Grotesk', 'Outfit', 'Manrope', sans-serif" font-size="22" font-weight="800" fill="#F8FAFC">29</text>

    <rect x="115" y="0" width="105" height="55" rx="8" fill="#0B1520" stroke="#1A2E3B" stroke-width="1"/>
    <rect x="117" y="0" width="103" height="2" rx="1" fill="#FBBF24" opacity="0.6"/>
    <text x="127" y="20" font-family="'Space Grotesk', 'Outfit', 'Manrope', sans-serif" font-size="9" font-weight="600" fill="#8BA4B8" letter-spacing="0.5">STARS EARNED</text>
    <text x="127" y="42" font-family="'Space Grotesk', 'Outfit', 'Manrope', sans-serif" font-size="22" font-weight="800" fill="#FBBF24">4</text>

    <rect x="0" y="63" width="105" height="55" rx="8" fill="#0B1520" stroke="#1A2E3B" stroke-width="1"/>
    <rect x="2" y="63" width="103" height="2" rx="1" fill="#818CF8" opacity="0.6"/>
    <text x="12" y="83" font-family="'Space Grotesk', 'Outfit', 'Manrope', sans-serif" font-size="9" font-weight="600" fill="#8BA4B8" letter-spacing="0.5">FORKS / COLLABS</text>
    <text x="12" y="105" font-family="'Space Grotesk', 'Outfit', 'Manrope', sans-serif" font-size="22" font-weight="800" fill="#818CF8">1</text>

    <rect x="115" y="63" width="105" height="55" rx="8" fill="#0B1520" stroke="#1A2E3B" stroke-width="1"/>
    <rect x="117" y="63" width="103" height="2" rx="1" fill="#34D399" opacity="0.6"/>
    <text x="127" y="83" font-family="'Space Grotesk', 'Outfit', 'Manrope', sans-serif" font-size="9" font-weight="600" fill="#8BA4B8" letter-spacing="0.5">COMMITS (EST)</text>
    <text x="127" y="105" font-family="'Space Grotesk', 'Outfit', 'Manrope', sans-serif" font-size="22" font-weight="800" fill="#34D399">522+</text>
  </g>

  <!-- 3D Isometric Velocity Chart (Right Side) -->
  <g transform="translate(255, 50)">
    <rect x="0" y="0" width="215" height="128" rx="8" fill="#0B1520" stroke="#1A2E3B" stroke-width="1"/>
    <rect x="2" y="0" width="211" height="2" rx="1" fill="#C084FC" opacity="0.6"/>
    <text x="14" y="20" font-family="'Space Grotesk', 'Outfit', 'Manrope', sans-serif" font-size="9" font-weight="700" fill="#8BA4B8" letter-spacing="0.8">WEEKLY COMMIT VELOCITY</text>
    <rect x="14" y="45" width="14" height="60" rx="2" fill="#1A2E3B" opacity="0.3"/>
    <polygon points="28,78.0 34,74.4 34,101.4 28,105" fill="#0369A1" opacity="1"/>
    <rect x="14" y="78.0" width="14" height="27.0" rx="2" fill="#38BDF8" opacity="1"/>
    <polygon points="14,78.0 20,74.4 34,74.4 28,78.0" fill="#38BDF8" opacity="0.7"/>
    <text x="21.0" y="119" text-anchor="middle" font-family="'JetBrains Mono', 'Fira Code', 'IBM Plex Mono', monospace" font-size="8" font-weight="600" fill="#8BA4B8">Mon</text>
    <rect x="42" y="45" width="14" height="60" rx="2" fill="#1A2E3B" opacity="0.3"/>
    <polygon points="56,64.2 62,60.6 62,101.4 56,105" fill="#4338CA" opacity="1"/>
    <rect x="42" y="64.2" width="14" height="40.8" rx="2" fill="#818CF8" opacity="1"/>
    <polygon points="42,64.2 48,60.6 62,60.6 56,64.2" fill="#818CF8" opacity="0.7"/>
    <text x="49.0" y="119" text-anchor="middle" font-family="'JetBrains Mono', 'Fira Code', 'IBM Plex Mono', monospace" font-size="8" font-weight="600" fill="#8BA4B8">Tue</text>
    <rect x="70" y="45" width="14" height="60" rx="2" fill="#1A2E3B" opacity="0.3"/>
    <polygon points="84,54.0 90,50.4 90,101.4 84,105" fill="#7E22CE" opacity="1"/>
    <rect x="70" y="54.0" width="14" height="51.0" rx="2" fill="#C084FC" opacity="1"/>
    <polygon points="70,54.0 76,50.4 90,50.4 84,54.0" fill="#C084FC" opacity="0.7"/>
    <text x="77.0" y="119" text-anchor="middle" font-family="'JetBrains Mono', 'Fira Code', 'IBM Plex Mono', monospace" font-size="8" font-weight="600" fill="#8BA4B8">Wed</text>
    <rect x="98" y="45" width="14" height="60" rx="2" fill="#1A2E3B" opacity="0.3"/>
    <polygon points="112,69.0 118,65.4 118,101.4 112,105" fill="#047857" opacity="1"/>
    <rect x="98" y="69.0" width="14" height="36.0" rx="2" fill="#34D399" opacity="1"/>
    <polygon points="98,69.0 104,65.4 118,65.4 112,69.0" fill="#34D399" opacity="0.7"/>
    <text x="105.0" y="119" text-anchor="middle" font-family="'JetBrains Mono', 'Fira Code', 'IBM Plex Mono', monospace" font-size="8" font-weight="600" fill="#8BA4B8">Thu</text>
    <rect x="126" y="45" width="14" height="60" rx="2" fill="#1A2E3B" opacity="0.3"/>
    <polygon points="140,48.0 146,44.4 146,101.4 140,105" fill="#B45309" opacity="1"/>
    <rect x="126" y="48.0" width="14" height="57.0" rx="2" fill="#FBBF24" opacity="1"/>
    <polygon points="126,48.0 132,44.4 146,44.4 140,48.0" fill="#FBBF24" opacity="0.7"/>
    <text x="133.0" y="119" text-anchor="middle" font-family="'JetBrains Mono', 'Fira Code', 'IBM Plex Mono', monospace" font-size="8" font-weight="600" fill="#8BA4B8">Fri</text>
    <rect x="154" y="45" width="14" height="60" rx="2" fill="#1A2E3B" opacity="0.3"/>
    <polygon points="168,60.0 174,56.4 174,101.4 168,105" fill="#BE123C" opacity="1"/>
    <rect x="154" y="60.0" width="14" height="45.0" rx="2" fill="#F43F5E" opacity="1"/>
    <polygon points="154,60.0 160,56.4 174,56.4 168,60.0" fill="#F43F5E" opacity="0.7"/>
    <text x="161.0" y="119" text-anchor="middle" font-family="'JetBrains Mono', 'Fira Code', 'IBM Plex Mono', monospace" font-size="8" font-weight="600" fill="#8BA4B8">Sat</text>
    <rect x="182" y="45" width="14" height="60" rx="2" fill="#1A2E3B" opacity="0.3"/>
    <polygon points="196,72.0 202,68.4 202,101.4 196,105" fill="#C2410C" opacity="1"/>
    <rect x="182" y="72.0" width="14" height="33.0" rx="2" fill="#F97316" opacity="1"/>
    <polygon points="182,72.0 188,68.4 202,68.4 196,72.0" fill="#F97316" opacity="0.7"/>
    <text x="189.0" y="119" text-anchor="middle" font-family="'JetBrains Mono', 'Fira Code', 'IBM Plex Mono', monospace" font-size="8" font-weight="600" fill="#8BA4B8">Sun</text>
  </g>

  <!-- Footer Timestamp -->
  <text x="24" y="205" font-family="'Space Grotesk', 'Outfit', 'Manrope', sans-serif" font-size="9" font-weight="500" fill="#5E7A8A">Auto-Synced: Aug 27, 2026 - 04:14 UTC • Followers: 7</text>
</svg>